<?xml version="1.0" encoding="UTF-8"?><svg id="Brand" xmlns="http://www.w3.org/2000/svg" xmlns:xlink="http://www.w3.org/1999/xlink" viewBox="0 0 500 500"><defs><style>.cls-1{fill:#f37c3a;}.cls-2{fill:#fff;}.cls-3{fill:#777;}.cls-4{fill:#ffca0f;}.cls-5{fill:#121212;}.cls-6{fill:#fcb141;}.cls-7{mask:url(#mask);}</style><mask id="mask" x="62.5" y="62.5" width="375" height="375" maskUnits="userSpaceOnUse"><path class="cls-2" d="m62.5,62.5h350c13.8,0,25,11.2,25,25v325c0,13.8-11.2,25-25,25H87.5c-13.8,0-25-11.2-25-25V62.5h0Z"/></mask></defs><g id="Outline"><path class="cls-2" d="m412.5,62.5c13.81,0,25,11.19,25,25v325c0,13.81-11.19,25-25,25H87.5c-13.81,0-25-11.19-25-25V62.5h350m0-15H47.5v365c0,22.06,17.94,40,40,40h325c22.06,0,40-17.94,40-40V87.5c0-22.06-17.94-40-40-40h0Z"/></g><g class="cls-7"><g id="Mask"><rect class="cls-5" x="62.5" y="189.16" width="375" height="248.34"/><rect class="cls-3" x="62.5" y="62.5" width="375" height="126.66"/><rect class="cls-1" x="62.5" y="62.5" width="33.34" height="375"/><rect class="cls-6" x="95.84" y="62.5" width="33.34" height="375"/><rect class="cls-4" x="129.16" y="62.5" width="33.34" height="375"/><path class="cls-3" d="m334.34,329.39c-18.46-19.13-39.99-36.91-65.6-44.97-26.5-8.86-55.82-2.16-78.49,14.78,14.66-17.52,35.07-30.62,58-34.41,31.92-5.56,64.32,5.04,92.32,19.67,6.99,3.68,13.77,7.68,20.43,11.86l-26.66,33.08h0Z"/><ellipse class="cls-2" cx="347.67" cy="312.85" rx="42.57" ry="42.57"/></g></g></svg>