<?xml version="1.0" encoding="UTF-8"?><svg id="Main" xmlns="http://www.w3.org/2000/svg" xmlns:xlink="http://www.w3.org/1999/xlink" viewBox="0 0 500 500"><defs><style>.cls-1{fill:#f37c3a;}.cls-2{fill:#fff;}.cls-3{fill:#777;}.cls-4{fill:#ffca0f;}.cls-5{fill:#313131;}.cls-6{fill:#212121;}.cls-7{clip-path:url(#clippath);}.cls-8{fill:#121212;}.cls-9{fill:none;}.cls-10{fill:#fcb141;}.cls-11{mask:url(#mask);}</style><mask id="mask" x="62.5" y="119.55" width="375" height="260.9" maskUnits="userSpaceOnUse"><path class="cls-2" d="m62.5,119.55h349.46c14.1,0,25.54,11.44,25.54,25.54v209.82c0,14.1-11.44,25.54-25.54,25.54H88.04c-14.1,0-25.54-11.44-25.54-25.54V119.55h0Z"/></mask><clipPath id="clippath"><path class="cls-9" d="m93.5,224.05v122.38h124.31v-122.38h-124.31Zm62.75,68.16h-19.92c.27-6.48,1.74-12.66,4.18-18.31h23.3l.09.06c-4.34,4.91-7.15,11.23-7.64,18.26Z"/></clipPath></defs><g id="Outline"><path class="cls-2" d="m411.96,119.55c14.11,0,25.54,11.43,25.54,25.54v209.82c0,14.11-11.43,25.54-25.54,25.54H88.04c-14.1,0-25.54-11.43-25.54-25.54V119.55h349.46m0-15H47.5v250.36c0,22.35,18.19,40.54,40.54,40.54h323.92c22.35,0,40.54-18.19,40.54-40.54v-209.82c0-22.35-18.19-40.54-40.54-40.54h0Z"/></g><g class="cls-11"><g id="Mask"><rect class="cls-8" x="62.5" y="194.61" width="375" height="185.84"/><rect class="cls-3" x="62.5" y="119.55" width="375" height="75.06"/><rect class="cls-1" x="62.51" y="119.55" width="25.01" height="75"/><rect class="cls-10" x="87.51" y="119.55" width="25.01" height="75"/><rect class="cls-4" x="112.5" y="119.55" width="25.01" height="75"/><path class="cls-6" d="m174.08,145.24h7.87v7.89h-7.87v-7.89Zm0,23.68h31.46v7.89h-31.46v-7.89Zm7.87-31.57h31.46v7.89h-31.46v-7.89Zm0,15.78h23.6v7.89h-23.6v-7.89Zm23.6,7.89h7.87v7.89h-7.87v-7.89Z"/><path class="cls-6" d="m221.35,137.35h7.87v31.57h-7.87v-31.57Zm7.87,31.57h23.6v7.89h-23.6v-7.89Zm23.6-31.57h7.87v31.57h-7.87v-31.57Z"/><path class="cls-6" d="m300.08,137.35v7.89h-23.6v7.89h23.6v7.89h-23.6v15.78h-7.87v-39.46h31.46Zm0,7.89h7.87v7.89h-7.87v-7.89Z"/><path class="cls-6" d="m323.76,145.24v7.89h15.73v7.89h-15.73v7.89h31.46v7.89h-39.33v-31.57h7.87Zm0-7.89h31.46v7.89h-31.46v-7.89Z"/><path class="cls-6" d="m394.62,137.35v7.89h-23.6v7.89h23.6v7.89h7.87v15.78h-7.87v-15.78h-23.6v15.78h-7.87v-39.46h31.46Zm0,7.89h7.87v7.89h-7.87v-7.89Z"/><g id="Pong"><path class="cls-5" d="m404.5,344.42v-49.95h-34.64v18.08h14.86v14.53c-13.99,0-39,4.94-39-29.23s16.16-31.14,35.29-31.51c7.71,0,23.35,0,23.35,0v-18.71s-23.24,0-25.85,0c-9.71,0-53.93-2.81-53.93,48.17s32.84,48.63,60.36,48.63c6.87.02,19.57,0,19.57,0Z"/><path class="cls-5" d="m215.81,255.86c0,24.25-15.73,35.36-30.06,35.36h-70.87v53.21h-19.38v-118.38h89.05c15.49-.02,31.26,5.55,31.26,29.8Zm-19.17,2.99c0-15.63-11.52-16.06-11.52-16.06h-70.62v32.12h70.87s11.26-.43,11.26-16.06Z"/><path class="cls-3" d="m278.62,243.86c-3.73,0-10.78,0-10.78,0h-82.36c-27.59,0-49.21,22.95-49.21,50.57s21.75,50.01,50.29,50.01h68.35v-67.54c0-6.6,13.76-13.75,24.7-13.75,13.55,0,24.76,7.92,24.76,13.75v67.54h20.2v-70.02c-.01-17.78-23.15-30.57-45.95-30.57Zm-91.93,82.29c-16.59,0-30.54-14.52-30.54-31.72s13.94-30.84,30.54-30.84h50.55c-1.65,3.35-2.53,7-2.53,10.84v51.73h-48.02Z"/><g class="cls-7"><path class="cls-5" d="m215.81,255.86c0,24.25-15.73,35.36-30.06,35.36h-70.87v53.21h-19.38v-118.38h89.05c15.49-.02,31.26,5.55,31.26,29.8Zm-19.17,2.99c0-15.63-11.52-16.06-11.52-16.06h-70.62v32.12h70.87s11.26-.43,11.26-16.06Z"/></g></g><path class="cls-3" d="m321.25,236.25c-6.85-7-14.65-13.55-24.07-16.5-9.72-3.25-20.48-.75-28.81,5.42,7.1-8.68,18.57-14.05,30.1-13.11,11.81.7,22.72,5.94,32.57,12.05,0,0-9.79,12.14-9.79,12.14h0Z"/><circle class="cls-2" cx="326.15" cy="230.18" r="15.62"/></g></g></svg>