<?xml version="1.0" encoding="UTF-8"?><svg id="Main" xmlns="http://www.w3.org/2000/svg" xmlns:xlink="http://www.w3.org/1999/xlink" viewBox="0 0 500 500"><defs><style>.cls-1{fill:#f37c3a;}.cls-2{fill:#fff;}.cls-3{fill:#777;}.cls-4{fill:#ffca0f;}.cls-5{fill:#313131;}.cls-6{fill:#212121;}.cls-7{clip-path:url(#clippath);}.cls-8{fill:#121212;}.cls-9{fill:none;}.cls-10{fill:#fcb141;}.cls-11{mask:url(#mask);}</style><mask id="mask" x="62.5" y="119.5484" width="375" height="260.9032" maskUnits="userSpaceOnUse"><path class="cls-2" d="m62.5,119.5484h349.4607c14.0955,0,25.5393,11.4438,25.5393,25.5393v209.8245c0,14.0955-11.4438,25.5393-25.5393,25.5393H88.0393c-14.0955,0-25.5393-11.4438-25.5393-25.5393V119.5484h0Z"/></mask><clipPath id="clippath"><path class="cls-9" d="m93.496,224.0545v122.3774h124.3093v-122.3774h-124.3093Zm62.7453,68.1623h-19.9219c.2718-6.4767,1.737-12.6589,4.178-18.3145h23.3005l.0876.0555c-4.3354,4.9081-7.1517,11.233-7.6442,18.2589Z"/></clipPath></defs><g id="Outline"><path class="cls-2" d="m411.9607,119.5484c14.105,0,25.5393,11.4343,25.5393,25.5393v209.8245c0,14.105-11.4343,25.5393-25.5393,25.5393H88.0393c-14.105,0-25.5393-11.4343-25.5393-25.5393V119.5484h349.4607m0-15H47.5v250.3638c0,22.3535,18.1858,40.5393,40.5393,40.5393h323.9213c22.3535,0,40.5393-18.1858,40.5393-40.5393v-209.8245c0-22.3535-18.1858-40.5393-40.5393-40.5393h0Z"/></g><g class="cls-11"><g id="Mask"><rect class="cls-8" x="62.5" y="194.5484" width="375" height="185.9032"/><rect class="cls-3" x="62.5" y="119.5484" width="375" height="75"/><rect class="cls-1" x="62.5078" y="119.5484" width="25.0052" height="75"/><rect class="cls-10" x="87.5129" y="119.5484" width="25.0052" height="75"/><rect class="cls-4" x="112.5026" y="119.5484" width="25.0052" height="75"/><path class="cls-6" d="m174.0787,145.24h7.8654v7.8923h-7.8654v-7.8923Zm0,23.677h31.4614v7.8923h-31.4614v-7.8923Zm7.8654-31.5693h31.4614v7.8923h-31.4614v-7.8923Zm0,15.7846h23.5961v7.8923h-23.5961v-7.8923Zm23.5961,7.8923h7.8654v7.8923h-7.8654v-7.8923Z"/><path class="cls-6" d="m221.3495,137.3477h7.8654v31.5693h-7.8654v-31.5693Zm7.8654,31.5693h23.5961v7.8923h-23.5961v-7.8923Zm23.5961-31.5693h7.8654v31.5693h-7.8654v-31.5693Z"/><path class="cls-6" d="m300.0817,137.3477v7.8923h-23.5961v7.8923h23.5961v7.8923h-23.5961v15.7846h-7.8654v-39.4616h31.4614Zm0,7.8923h7.8654v7.8923h-7.8654v-7.8923Z"/><path class="cls-6" d="m323.7565,145.24v7.8923h15.7307v7.8923h-15.7307v7.8923h31.4614v7.8923h-39.3268v-31.5693h7.8654Zm0-7.8923h31.4614v7.8923h-31.4614v-7.8923Z"/><path class="cls-6" d="m394.6234,137.3477v7.8923h-23.5961v7.8923h23.5961v7.8923h7.8654v15.7846h-7.8654v-15.7846h-23.5961v15.7846h-7.8654v-39.4616h31.4614Zm0,7.8923h7.8654v7.8923h-7.8654v-7.8923Z"/><g id="Pong"><path class="cls-5" d="m404.504,344.4154v-49.9539h-34.6416v18.079h14.8571v14.5323c-13.9884,0-38.9998,4.9416-38.9998-29.2299s16.1601-31.1385,35.2855-31.5142c7.7131,0,23.349,0,23.349,0v-18.7101s-23.2441,0-25.8501,0c-9.705,0-53.9318-2.8103-53.9318,48.1655s32.8443,48.6314,60.3568,48.6314c6.8744.015,19.5749,0,19.5749,0Z"/><path class="cls-5" d="m215.8054,255.8555c0,24.2489-15.7257,35.3614-30.0586,35.3614h-70.8706v53.215h-19.3801v-118.3774h89.0526c15.4861-.015,31.2568,5.5521,31.2568,29.801Zm-19.1704,2.9893c0-15.6281-11.5172-16.0577-11.5172-16.0577h-70.616v32.1153h70.8706s11.2626-.4295,11.2626-16.0576Z"/><path class="cls-3" d="m278.6208,243.8554c-3.7292,0-10.7834,0-10.7834,0h-82.3579c-27.5874,0-49.214,22.9481-49.214,50.57s21.7465,50.014,50.2924,50.014h68.3545v-67.5369c0-6.5974,13.7637-13.7509,24.6969-13.7509,13.5541,0,24.7568,7.9199,24.7568,13.7509v67.5369h20.2038v-70.0166c-.0149-17.7784-23.1542-30.5674-45.9491-30.5674Zm-91.9282,82.2946c-16.5943,0-30.5378-14.5172-30.5378-31.7246,0-17.2224,13.9435-30.838,30.5378-30.838h50.547c-1.6474,3.3514-2.5311,7.0032-2.5311,10.8354v51.7271h-48.0159Z"/><g class="cls-7"><path class="cls-5" d="m215.8054,255.8555c0,24.2489-15.7257,35.3614-30.0586,35.3614h-70.8706v53.215h-19.3801v-118.3774h89.0526c15.4861-.015,31.2568,5.5521,31.2568,29.801Zm-19.1704,2.9893c0-15.6281-11.5172-16.0577-11.5172-16.0577h-70.616v32.1153h70.8706s11.2626-.4295,11.2626-16.0576Z"/></g></g><path class="cls-3" d="m321.2525,236.2494c-6.8505-7.0023-14.6457-13.5453-24.0742-16.499-9.7198-3.2533-20.4781-.7507-28.8101,5.4156,7.1012-8.6767,18.5681-14.0518,30.0974-13.1062,11.8065.6967,22.7208,5.941,32.5731,12.0466,0,0-9.7862,12.143-9.7862,12.143h0Z"/><circle class="cls-2" cx="326.1457" cy="230.1779" r="15.625"/></g></g></svg>